G75*
%MOIN*%
%OFA0B0*%
%FSLAX26Y26*%
%IPPOS*%
%LPD*%
%AMOC8*
5,1,8,0,0,1.08239X$1,22.5*
%
%ADD10C,0.084000*%
%ADD11C,0.106425*%
%ADD12C,0.082000*%
%ADD13R,0.082000X0.082000*%
%ADD14C,0.078866*%
%ADD15C,0.149732*%
%ADD16C,0.060000*%
D10*
X00800000Y02000000D03*
X01200000Y02000000D03*
X01500000Y02000000D03*
X01900000Y02000000D03*
X02150000Y02000000D03*
X02550000Y02000000D03*
X02900000Y02000000D03*
X03300000Y02000000D03*
D11*
X03100000Y01750000D03*
X02863780Y01671260D03*
X02636220Y01671260D03*
X02400000Y01750000D03*
X02163780Y01671260D03*
X01936220Y01671260D03*
X01700000Y01750000D03*
X01463780Y01671260D03*
X01236220Y01671260D03*
X01000000Y01750000D03*
X00763780Y01671260D03*
X00763780Y01190945D03*
X01244094Y01190945D03*
X01463780Y01190945D03*
X01944094Y01190945D03*
X02163780Y01190945D03*
X02644094Y01190945D03*
X02863780Y01190945D03*
X03344094Y01190945D03*
X03336220Y01671260D03*
D12*
X03750000Y01700000D03*
X03750000Y01600000D03*
X03750000Y01500000D03*
X03750000Y01400000D03*
X03750000Y01300000D03*
X03750000Y01200000D03*
X03750000Y01100000D03*
X03750000Y01000000D03*
X03750000Y00900000D03*
X03750000Y00800000D03*
X03750000Y00700000D03*
X03750000Y00600000D03*
X03750000Y00500000D03*
X03500000Y00550000D03*
X03500000Y00800000D03*
X03200000Y00800000D03*
X03200000Y00550000D03*
X02700000Y00550000D03*
X02700000Y00800000D03*
X02400000Y00800000D03*
X02400000Y00550000D03*
X01100000Y00500000D03*
X01100000Y00350000D03*
X00800000Y00350000D03*
X00800000Y00500000D03*
X00800000Y00650000D03*
X00800000Y00800000D03*
X01100000Y00800000D03*
X01100000Y00650000D03*
X01100000Y02599409D03*
X01000000Y02599409D03*
X01400000Y02599409D03*
X01500000Y02599409D03*
X01800000Y02599409D03*
X01900000Y02599409D03*
D13*
X01700000Y02599409D03*
X01300000Y02599409D03*
X00900000Y02599409D03*
D14*
X00433858Y02342913D02*
X00362992Y02342913D01*
X00362992Y02244488D02*
X00433858Y02244488D01*
X00433858Y02146063D02*
X00362992Y02146063D01*
X00362992Y02047638D02*
X00433858Y02047638D01*
X00433858Y01949213D02*
X00362992Y01949213D01*
X00237008Y01949213D02*
X00166142Y01949213D01*
X00166142Y02047638D02*
X00237008Y02047638D01*
X00237008Y02146063D02*
X00166142Y02146063D01*
X00166142Y02244488D02*
X00237008Y02244488D01*
X00237008Y02342913D02*
X00166142Y02342913D01*
X00166142Y01850787D02*
X00237008Y01850787D01*
X00237008Y01752362D02*
X00166142Y01752362D01*
X00166142Y01653937D02*
X00237008Y01653937D01*
X00237008Y01555512D02*
X00166142Y01555512D01*
X00166142Y01457087D02*
X00237008Y01457087D01*
X00362992Y01457087D02*
X00433858Y01457087D01*
X00433858Y01555512D02*
X00362992Y01555512D01*
X00362992Y01653937D02*
X00433858Y01653937D01*
X00433858Y01752362D02*
X00362992Y01752362D01*
X00362992Y01850787D02*
X00433858Y01850787D01*
X00433858Y01246850D02*
X00362992Y01246850D01*
X00237008Y01246850D02*
X00166142Y01246850D01*
X00166142Y01148425D02*
X00237008Y01148425D01*
X00237008Y01050000D02*
X00166142Y01050000D01*
X00166142Y00951575D02*
X00237008Y00951575D01*
X00237008Y00853150D02*
X00166142Y00853150D01*
X00362992Y00853150D02*
X00433858Y00853150D01*
X00433858Y00951575D02*
X00362992Y00951575D01*
X00362992Y01050000D02*
X00433858Y01050000D01*
X00433858Y01148425D02*
X00362992Y01148425D01*
X00362992Y00649213D02*
X00433858Y00649213D01*
X00433858Y00550787D02*
X00362992Y00550787D01*
X00237008Y00550787D02*
X00166142Y00550787D01*
X00166142Y00649213D02*
X00237008Y00649213D01*
D15*
X00250000Y00250000D03*
X00200000Y02700000D03*
X03750000Y02700000D03*
X03750000Y00200000D03*
D16*
X03026000Y00400000D02*
X02974000Y00400000D01*
X02974000Y00500000D02*
X03026000Y00500000D01*
X03026000Y00600000D02*
X02974000Y00600000D01*
X02974000Y00700000D02*
X03026000Y00700000D01*
X03026000Y00800000D02*
X02974000Y00800000D01*
X02974000Y00900000D02*
X03026000Y00900000D01*
X02176000Y00900000D02*
X02124000Y00900000D01*
X02124000Y00800000D02*
X02176000Y00800000D01*
X02176000Y00700000D02*
X02124000Y00700000D01*
X02124000Y00600000D02*
X02176000Y00600000D01*
X02176000Y00500000D02*
X02124000Y00500000D01*
X02124000Y00400000D02*
X02176000Y00400000D01*
M02*
